# xmcd
#
# Track frame offsets:
#	150
#	14371
#	29832
#	46716
#	61971
#	80562
#	98210
#	113556
#	126526
#	143162
#	162176
#	184072
#	198977
#	217752
#
# Disc length: 3086 seconds
#
# Revision: 2
# Processed by: cddbd v1.5.2PL0 Copyright (c) Steve Scherf et al.
# Submitted via: audiograbber 1.83.01
#
DISCID=be0c0c0e
DTITLE=Star Disc - SD0122
DYEAR=1900
DGENRE=Karaoke
TTITLE0=Jackson, Alan - Too Much Of A Good Thing
TTITLE1=Wilson, Gretchen - Here For The Party
TTITLE2=Urban, Keith - Days Go By
TTITLE3=Rascal Flatts - Feels Like Today
TTITLE4=Twain, Shania - When You Kiss Me
TTITLE5=SHeDAISY - Come Home Soon
TTITLE6=Walker, Clay - Jesus Was A Country Boy
TTITLE7=Lynn, Loretta - Miss Being Mrs
TTITLE8=Ketchum, Hal - My Love Will Not Change
TTITLE9=Chesnutt, Mark - The Lord Loves The Drinking Man
TTITLE10=Malibu Storm - Photograph
TTITLE11=Hughes, Jedd - High Lonesome
TTITLE12=Ricochet - Feel Like Fallin'
TTITLE13=McHayes - Tulsa Time
EXTD=
EXTT0=
EXTT1=
EXTT2=
EXTT3=
EXTT4=
EXTT5=
EXTT6=
EXTT7=
EXTT8=
EXTT9=
EXTT10=
EXTT11=
EXTT12=
EXTT13=
PLAYORDER=
